<?xml version="1.0" encoding="UTF-8"?>
<!DOCTYPE svg PUBLIC "-//W3C//DTD SVG 1.1//EN" "http://www.w3.org/Graphics/SVG/1.1/DTD/svg11.dtd">
<!-- Creator: CorelDRAW 2020 (64-Bit) -->
<svg xmlns="http://www.w3.org/2000/svg" xml:space="preserve" width="200mm" height="200mm" version="1.1" style="shape-rendering:geometricPrecision; text-rendering:geometricPrecision; image-rendering:optimizeQuality; fill-rule:evenodd; clip-rule:evenodd"
viewBox="0 0 19716.87 19716.87"
 xmlns:xlink="http://www.w3.org/1999/xlink"
 xmlns:xodm="http://www.corel.com/coreldraw/odm/2003">
 <defs>
  <style type="text/css">
   <![CDATA[
    .fil0 {fill:#FEFEFE}
    .fil2 {fill:#6777EF}
    .fil1 {fill:#6777EF}
   ]]>
  </style>
 </defs>
 <g id="Layer_x0020_1">
  <metadata id="CorelCorpID_0Corel-Layer"/>
  <g id="_2103934549744">
   <rect class="fil0" width="19716.87" height="19716.87" rx="14592.78" ry="14592.78"/>
   <path class="fil1" d="M9858.44 0c5444.66,0 9858.44,4413.78 9858.44,9858.44 0,5444.66 -4413.78,9858.44 -9858.44,9858.44 -5444.66,0 -9858.44,-4413.78 -9858.44,-9858.44 0,-5444.66 4413.78,-9858.44 9858.44,-9858.44zm0 545.23c5143.54,0 9313.21,4169.67 9313.21,9313.21 0,5143.54 -4169.67,9313.21 -9313.21,9313.21 -5143.54,0 -9313.21,-4169.67 -9313.21,-9313.21 0,-5143.54 4169.67,-9313.21 9313.21,-9313.21z"/>
   <path class="fil2" d="M2794.58 5250.48c25.45,28.48 1324.86,808.03 1488.97,866.17 119.59,-188.55 634.46,-873.08 806.59,-964.24 250.94,132.93 482.17,279.71 735.9,423.9 251.95,143.2 493.61,287.49 747.34,430.61 506.51,285.7 979.04,565.91 1480.35,855.32 982.92,567.47 1983.42,1133.51 2962.63,1710 85.06,50.08 89.92,70.9 186.2,11.94l1297.09 -750.42c505.98,-283.15 981.95,-567.64 1480.36,-855.25 88.44,-51.03 2859.03,-1664.77 2969.52,-1704.66 -42.22,-145.94 -467.19,-676.11 -567.18,-794.67 -431.02,-511.09 -865.97,-934.04 -1388.92,-1332.47 -2703.37,-2059.62 -6485.48,-2317.5 -9405.5,-564.19 -293.55,176.26 -551.1,343.08 -809.26,542.03 -676.4,521.25 -1189.57,1032.88 -1700.55,1716.2 -83.26,111.34 -225.78,291.84 -283.55,409.74zm3776.9 -1235.52c64.47,59.24 1804.38,1051.72 1919.54,1116.86 651.71,368.6 1284.07,750.7 1934.2,1115.76 160.46,90.11 320.21,185.36 476.94,275.8 69.78,40.27 173.78,131.82 253.33,103.65l2658.03 -1533.34c112.47,-64.2 412.76,-223.35 480.64,-287.23 -80.98,-93.87 -235.1,-207.31 -342.33,-290.3 -117.71,-91.1 -237.17,-176.74 -372.82,-263.98 -2124.2,-1366.15 -4538.47,-1476.27 -6800.23,-363.72 -38.95,19.16 -63.12,32.97 -100.84,53.74l-106.48 72.76z"/>
   <path class="fil2" d="M5957.82 17358.8l-1.73 -2009.08c-298.46,-180.06 -699.23,-572.12 -964.47,-830.47 -89.29,-86.97 -193.01,-218.34 -280.01,-319.02 -234.42,-271.29 -848.96,-1145.88 -933.01,-1472.22 121.64,45.38 351.96,200.52 487.81,276.63 169.28,94.85 331.28,193.78 502.04,289.87 909.23,511.64 1828.72,1067 2741.46,1582.47 222.08,125.42 192.73,80.13 192.95,219.07l0.05 2947.49c367.72,138.44 1276.12,257.95 1708.98,269.75l6.24 -4323.95c-115.99,-43.25 -346.95,-193.43 -467.92,-263.27l-1174.82 -678.45c-40.44,-23.33 -73.72,-43.59 -121.69,-70.9 -50.59,-28.8 -83.61,-39.07 -114.24,-81.44l1650.17 -958.34c259.04,-153.54 228.6,-86.05 228.42,-315.79l0.1 -1493.79c-121.65,-48.43 -1852.2,-1064.56 -2033.18,-1167.85 -343.24,-195.89 -672.22,-394.07 -1015.64,-586.48 -167.88,-94.06 -919.91,-556.24 -1028.24,-579.63 -190.55,287.8 -444.5,1282.11 -443.67,1704.19 124.46,115.68 2303.3,1301.97 2521.24,1469.82l-1590.16 927.1c-70.95,19.36 -1474.74,-823.75 -1602.01,-896.22l-808.04 -466.23c-90.45,-53.35 -181.06,-94.32 -265.55,-159.24 -69.59,-905.42 56.8,-1882.46 359.21,-2723.51 96.66,-268.83 208.24,-490.4 304.12,-738.59l-1481.9 -866.11c-498.17,854.78 -842.97,2276.01 -899.76,3299.14 -126.66,2281.89 552.39,4206.48 1907.12,5898.29 500.05,624.47 1242.24,1288.54 1935.27,1732.56 127.77,81.86 545.32,351.14 680.85,384.21z"/>
   <path class="fil2" d="M10324.93 10133.34l-1.25 8178.51c983.89,11.5 2274.97,-386.07 3144.35,-783.95 2161.3,-989.11 3875.6,-3000.91 4534.59,-5329.36 100,-353.36 323.92,-1323.46 291.48,-1692.59 -117.45,50.81 -1872.58,1068.79 -1894.42,1092.99 -47.14,52.24 -149.92,446.17 -186.36,547.44 -67.47,187.49 -137.82,359.55 -219.22,533.09 -620.44,1322.73 -1624.53,2424.18 -2896.63,3107.52 -206.6,110.98 -813.96,420.19 -1056.61,455.5l0.57 -7091.2 -1716.5 982.04z"/>
  </g>
 </g>
</svg>
